<svg width="24" height="25" viewBox="0 0 24 25" fill="none" xmlns="http://www.w3.org/2000/svg">
<g id="icon-call-24">
<path id="icon" fill-rule="evenodd" clip-rule="evenodd" d="M10.9745 7.12133C11.5605 7.76783 11.3747 8.50026 10.8566 9.19521C10.7337 9.35998 10.5921 9.52232 10.4211 9.70121C10.3391 9.78708 10.2751 9.85166 10.1412 9.98504L9.37441 10.7487C9.27396 10.8486 9.95978 12.2127 11.2908 13.5388C12.621 14.8642 13.9914 15.5473 14.0924 15.4468L14.8586 14.6837C15.2806 14.2633 15.504 14.0604 15.8111 13.8599C16.4495 13.4431 17.1457 13.3298 17.733 13.8525C19.6504 15.2176 20.7354 16.0553 21.267 16.6051C22.3038 17.6773 22.1679 19.3279 21.2729 20.2695C20.9625 20.596 20.569 20.9879 20.1042 21.4339C17.2926 24.2339 11.359 22.5299 6.81145 17.9991C2.26291 13.4673 0.551877 7.56073 3.35753 4.76665C3.86122 4.25742 4.0273 4.0922 4.51785 3.61109C5.43118 2.71535 7.16595 2.5751 8.22051 3.61198C8.77521 4.15738 9.65955 5.28992 10.9745 7.12133ZM16.2722 16.0912L15.5058 16.8544C14.2031 18.1518 11.9845 17.0459 9.87703 14.9461C7.76808 12.8449 6.65827 10.6376 7.96142 9.34059L8.72744 8.57772C8.85002 8.45559 8.90609 8.39901 8.97339 8.32861C9.06509 8.23269 9.14044 8.14844 9.20077 8.07389C8.0354 6.45811 7.2432 5.44848 6.81614 5.02858C6.59558 4.81172 6.10172 4.85165 5.92042 5.02946C5.43686 5.5037 5.27792 5.66183 4.77626 6.16896C2.97194 7.96586 4.35321 12.7341 8.22519 16.5918C12.096 20.4483 16.8858 21.8238 18.7038 20.0135C19.1614 19.5742 19.5342 19.2029 19.8212 18.9009C20.0286 18.6828 20.0657 18.2326 19.8271 17.9859C19.4298 17.5749 18.457 16.82 16.7774 15.6194C16.6549 15.7175 16.5044 15.8598 16.2722 16.0912ZM17 2.88677V5.87279H14V7.86348H17V10.8495H19V7.86348H22V5.87279H19V2.88677H17Z" fill="#B59BFA"/>
</g>
</svg>
