<svg width="24" height="25" viewBox="0 0 24 25" fill="none" xmlns="http://www.w3.org/2000/svg">
<g id="icon-map-pin-24">
<path id="icon" fill-rule="evenodd" clip-rule="evenodd" d="M12 23.3479L12.6577 22.7763C18.1887 17.9693 21 13.772 21 10.0825C21 4.85758 16.9029 1.12439 12 1.12439C7.09705 1.12439 3 4.85758 3 10.0825C3 13.772 5.81131 17.9693 11.3423 22.7763L12 23.3479ZM12 20.6962C7.30661 16.486 5 12.9184 5 10.0825C5 5.99818 8.16411 3.11507 12 3.11507C15.8359 3.11507 19 5.99818 19 10.0825C19 12.9184 16.6934 16.486 12 20.6962ZM12 5.10576C14.7614 5.10576 17 7.3339 17 10.0825C17 12.831 14.7614 15.0592 12 15.0592C9.23858 15.0592 7 12.831 7 10.0825C7 7.3339 9.23858 5.10576 12 5.10576ZM9 10.0825C9 8.43333 10.3431 7.09644 12 7.09644C13.6569 7.09644 15 8.43333 15 10.0825C15 11.7316 13.6569 13.0685 12 13.0685C10.3431 13.0685 9 11.7316 9 10.0825Z" fill="#B59BFA"/>
</g>
</svg>
