<svg width="17" height="17" viewBox="0 0 17 17" fill="none" xmlns="http://www.w3.org/2000/svg">
<path d="M16.0098 9.29152C15.8696 10.8078 15.3006 12.2528 14.3692 13.4575C13.4378 14.6622 12.1825 15.5767 10.7503 16.094C9.31816 16.6113 7.76827 16.71 6.28202 16.3786C4.79577 16.0472 3.43464 15.2994 2.35789 14.2227C1.28115 13.1459 0.533325 11.7848 0.201927 10.2985C-0.129471 8.8123 -0.0307368 7.2624 0.486577 5.83022C1.00389 4.39804 1.91839 3.1428 3.12306 2.21139C4.32773 1.27999 5.77276 0.710925 7.28904 0.570801C6.40131 1.77181 5.97412 3.25155 6.08519 4.7409C6.19625 6.23025 6.83819 7.63027 7.89424 8.68633C8.95029 9.74238 10.3503 10.3843 11.8397 10.4954C13.329 10.6064 14.8088 10.1793 16.0098 9.29152Z" fill="white"/>
</svg>
